<svg xmlns="http://www.w3.org/2000/svg" width="1312.484" height="1171.495" viewBox="0 0 1312.484 1171.495"><g transform="translate(59.362 16.191)"><path d="M2175.938,435.464c-37.177-88.569-94.036-236.184-158.549-247.118s-101.69,16.4-169.484,103.877-54.277,64.924-62.929,77.254c-18.772,133.1,7.093,9.324-18.74,133.342,30.687,3.913,44.217-20.434,55.427-36.739,24.056-34.99,113.718-250.4,182.6-237.277s92.942,97.316,125.746,189.166-84.186,130.37-70.6,171.131,274.978,17.469,221.277-27.174S2175.938,435.464,2175.938,435.464Z" transform="translate(-1834.303 442.626) rotate(-8)" fill="#f4e1d7"/><path d="M112.013,185.029C149.19,273.6,206.049,421.213,270.562,432.147s101.69-16.4,169.484-103.877,183.7-164.016,212.128-180.418,98.41-36.084,114.812-49.2S791.041-5.23,671.856.237,490.344,119.422,466.288,154.413s-113.718,250.4-182.6,237.277-92.943-97.316-125.746-189.166,84.186-130.37,70.6-171.131S-46.442,13.924,7.26,58.567,112.013,185.029,112.013,185.029Z" transform="matrix(-0.934, -0.358, 0.358, -0.934, 1097.437, 667.55)" fill="#f4e1d7"/><path d="M303.632,843.8c24.473-12.452,46.707-48.621,51.3-89.969s18.243-169.635-27.212-269.149-89.116-122.534-116.8-137.745c-18.38-10.1-77.437-55.1-130.022-97.884,323.709,49.529,107.663,18.023,343.47,54.4,21.431,53.184,35.4,105.334,41.351,150.094C483.6,587.961,448.88,767.734,386.336,828.857S279.159,856.25,303.632,843.8Z" transform="matrix(-0.988, 0.156, -0.156, -0.988, 1004.17, 1327.7)" fill="#f4e1d7"/><text transform="matrix(-1, 0, 0, 1, 151.291, 945)" fill="#c1213c" font-size="74" font-family="Papyrus-Regular, Papyrus" letter-spacing="0.005em"><tspan x="0" y="0">.....</tspan><tspan x="0" y="18">.....</tspan><tspan x="0" y="36">.....</tspan><tspan x="0" y="54">.....</tspan><tspan x="0" y="72">.....</tspan></text><g transform="translate(1071.085 446.68)"><path d="M223.854,101.187a3.91,3.91,0,1,0-3.909-3.91A3.914,3.914,0,0,0,223.854,101.187Zm0-6.486a2.576,2.576,0,1,1-2.576,2.576A2.579,2.579,0,0,1,223.854,94.7Z" transform="translate(-219.944 -73.897)" fill="#c1213c"/><path d="M23.456,198.349a3.91,3.91,0,1,0-3.91-3.909A3.914,3.914,0,0,0,23.456,198.349Zm0-6.486a2.576,2.576,0,1,1-2.577,2.577A2.579,2.579,0,0,1,23.456,191.863Z" transform="translate(27.997 -148.007)" fill="#c1213c"/><path d="M59.869,67.63a3.852,3.852,0,0,0,2.723-6.577L55.443,53.9a3.131,3.131,0,0,0,1.675-5.3L51.852,43.34A7.519,7.519,0,0,0,43.514,41.8a.667.667,0,0,0,.544,1.217,6.179,6.179,0,0,1,6.851,1.265l5.266,5.266a1.8,1.8,0,0,1-2.544,2.544l-5.348-5.348a.667.667,0,0,0-.943.943L61.651,62a2.519,2.519,0,0,1,0,3.563,2.578,2.578,0,0,1-3.563,0l-7.025-7.025a.667.667,0,0,0-.943.943L57.145,66.5A3.825,3.825,0,0,0,59.869,67.63Z" transform="translate(-13.951 -34.072)" fill="#c1213c"/><path d="M93.547,94.385a3.851,3.851,0,0,0,2.724-6.575l-7.025-7.025a.667.667,0,0,0-.943.943l7.025,7.025a2.519,2.519,0,1,1-3.563,3.563L76.72,77.27a.666.666,0,0,0-.943,0L73.3,79.743a3.33,3.33,0,0,1-4.709,0l-4.92-4.92a1.8,1.8,0,0,1,0-2.544,1.841,1.841,0,0,1,2.544,0l2.551,2.551a2.418,2.418,0,0,0,3.339,0,.667.667,0,0,0-.943-.943,1.053,1.053,0,0,1-1.454,0l-2.551-2.551a3.132,3.132,0,0,0-4.429,4.429l4.92,4.92a4.663,4.663,0,0,0,6.595,0l2-2L90.823,93.258A3.839,3.839,0,0,0,93.547,94.385Z" transform="translate(-52.065 -56.393)" fill="#c1213c"/><path d="M141.971,36.306a6.628,6.628,0,1,0-4.686-1.941h0A6.58,6.58,0,0,0,141.971,36.306Zm0-11.921a5.294,5.294,0,1,1-3.743,9.038h0a5.294,5.294,0,0,1,3.743-9.038Z" transform="translate(-120.708 -20.263)" fill="#c1213c"/><path d="M14.191,59.377h.871a.667.667,0,1,0,0-1.333h-.871a.667.667,0,1,0,0,1.333Z" transform="translate(41.062 -46.953)" fill="#c1213c"/><path d="M32.588,59.377h.871a.667.667,0,0,0,0-1.333h-.871a.667.667,0,0,0,0,1.333Z" transform="translate(18.301 -46.953)" fill="#c1213c"/><path d="M25.226,49.215a.667.667,0,0,0,.667-.667v-.871a.667.667,0,1,0-1.333,0v.871A.667.667,0,0,0,25.226,49.215Z" transform="translate(28.281 -38.539)" fill="#c1213c"/><path d="M25.226,67.612a.667.667,0,0,0,.667-.667v-.871a.667.667,0,0,0-1.333,0v.871A.667.667,0,0,0,25.226,67.612Z" transform="translate(28.281 -52.571)" fill="#c1213c"/><path d="M76.565,12.632a.66.66,0,0,0,.613-.92.556.556,0,0,0-.147-.22.674.674,0,0,0-.94,0,.637.637,0,0,0-.147.22.657.657,0,0,0-.047.253.671.671,0,0,0,.193.473A.688.688,0,0,0,76.565,12.632Z" transform="translate(-35.238 -11.3)" fill="#c1213c"/><path d="M202.442,220.3h.871a.667.667,0,1,0,0-1.333h-.871a.667.667,0,1,0,0,1.333Z" transform="translate(-191.85 -169.7)" fill="#c1213c"/><path d="M220.836,220.3h.871a.667.667,0,1,0,0-1.333h-.871a.667.667,0,0,0,0,1.333Z" transform="translate(-214.608 -169.7)" fill="#c1213c"/><path d="M213.474,210.139a.666.666,0,0,0,.667-.667V208.6a.667.667,0,1,0-1.333,0v.871A.666.666,0,0,0,213.474,210.139Z" transform="translate(-204.628 -161.283)" fill="#c1213c"/><path d="M213.474,228.533a.666.666,0,0,0,.667-.667V227a.667.667,0,1,0-1.333,0v.871A.666.666,0,0,0,213.474,228.533Z" transform="translate(-204.628 -175.313)" fill="#c1213c"/><path d="M94.8,231.805a.684.684,0,0,0,.26-.053.583.583,0,0,0,.213-.147.687.687,0,0,0,.147-.727.677.677,0,0,0-.147-.213.583.583,0,0,0-.213-.147.678.678,0,0,0-.727.147.652.652,0,0,0-.2.467.668.668,0,0,0,.053.26.711.711,0,0,0,.36.36A.664.664,0,0,0,94.8,231.805Z" transform="translate(-57.802 -178.473)" fill="#c1213c"/><path d="M.667,158.4a.667.667,0,0,0,.473-1.133.691.691,0,0,0-.947,0A.663.663,0,0,0,.667,158.4Z" transform="translate(58.667 -122.49)" fill="#c1213c"/><path d="M240.527,167.468a.637.637,0,0,0,.466-.2.585.585,0,0,0,.147-.213.671.671,0,0,0,.053-.26.807.807,0,0,0-.014-.127.453.453,0,0,0-.04-.126.573.573,0,0,0-.147-.213.573.573,0,0,0-.213-.147.638.638,0,0,0-.387-.041l-.121.041c-.046.019-.079.04-.12.06a1.059,1.059,0,0,0-.1.087.4.4,0,0,0-.08.1.683.683,0,0,0-.067.114.9.9,0,0,0-.033.126.413.413,0,0,0-.013.127.68.68,0,0,0,.046.26.658.658,0,0,0,.147.213A.669.669,0,0,0,240.527,167.468Z" transform="translate(-238.099 -129.395)" fill="#c1213c"/><path d="M231.424,24.775a.66.66,0,0,0,.667-.667.7.7,0,0,0-.193-.473.684.684,0,0,0-.6-.18.4.4,0,0,0-.127.04.5.5,0,0,0-.12.06.973.973,0,0,0-.1.08.7.7,0,0,0-.193.473.9.9,0,0,0,.014.133.424.424,0,0,0,.04.12.532.532,0,0,0,.06.12,1.05,1.05,0,0,0,.08.1,1.142,1.142,0,0,0,.1.08.5.5,0,0,0,.12.06.408.408,0,0,0,.127.04A.73.73,0,0,0,231.424,24.775Z" transform="translate(-226.837 -20.562)" fill="#c1213c"/><path d="M151.5,43.609a3.218,3.218,0,0,0,.659-.071,5.1,5.1,0,0,0,3.674-3.674,2.266,2.266,0,0,0-2.849-2.848,4.8,4.8,0,0,0-2.339,1.333c-1.517,1.517-1.859,3.552-.778,4.633h0A2.266,2.266,0,0,0,151.5,43.609Zm2.154-5.333a.94.94,0,0,1,.681.238,1.2,1.2,0,0,1,.195,1.075,3.778,3.778,0,0,1-2.645,2.644,1.2,1.2,0,0,1-1.075-.195h0c-.465-.466-.261-1.709.778-2.747a3.509,3.509,0,0,1,1.672-.972A2,2,0,0,1,153.651,38.276Z" transform="translate(-131.306 -30.86)" fill="#c1213c"/><path d="M112.778,78.481h0a.665.665,0,0,0,.471-.2l3.766-3.766a.666.666,0,0,0,0-.943l-3.287-3.287a.666.666,0,0,0-.943,0l-3.766,3.766a.666.666,0,0,0,0,.943l3.287,3.287A.668.668,0,0,0,112.778,78.481Zm2.823-4.433-2.823,2.823-2.345-2.345,2.823-2.823Z" transform="translate(-83.03 -56.146)" fill="#c1213c"/><path d="M118.026,155.988a.665.665,0,0,0,.471-.2l10.226-10.225a4,4,0,0,0-5.655-5.655l-1.523,1.524a2.666,2.666,0,1,1-3.77-3.77l7.169-7.171a.667.667,0,0,0-.943-.943l-7.17,7.17a4,4,0,1,0,5.655,5.655l1.523-1.524a2.666,2.666,0,0,1,3.77,3.77L117.554,154.85a.667.667,0,0,0,.472,1.138Z" transform="translate(-97.333 -101.349)" fill="#c1213c"/></g><g transform="translate(83.938 490.233)"><path d="M14.23,222.632a4.543,4.543,0,1,1,4.544-4.543A4.549,4.549,0,0,1,14.23,222.632Zm0-7.671a3.128,3.128,0,1,0,3.128,3.128A3.132,3.132,0,0,0,14.23,214.961Z" transform="translate(-1.745 -159.749)" fill="#c1213c"/><path d="M214.015,9.68a4.544,4.544,0,1,1,4.544-4.544A4.549,4.549,0,0,1,214.015,9.68Zm0-7.671a3.128,3.128,0,1,0,3.128,3.128A3.132,3.132,0,0,0,214.015,2.009Z" transform="translate(-151.205 -0.438)" fill="#c1213c"/><path d="M42.926,152.018A23.872,23.872,0,0,1,19.08,128.172a.708.708,0,0,1,1.416,0,22.43,22.43,0,0,0,44.861,0,.708.708,0,1,1,1.416,0A23.873,23.873,0,0,1,42.926,152.018Z" transform="translate(-8.772 -95.351)" fill="#c1213c"/><path d="M201.645,115.568a.707.707,0,0,1-.708-.708,15.611,15.611,0,0,0-.6-4.288.708.708,0,0,1,1.362-.389,17.049,17.049,0,0,1,.651,4.677A.708.708,0,0,1,201.645,115.568Z" transform="translate(-144.353 -82.039)" fill="#c1213c"/><path d="M74.1,80.48a.708.708,0,0,1-.708-.708,17.006,17.006,0,0,1,28.874-12.179.708.708,0,0,1-.988,1.014A15.589,15.589,0,0,0,74.811,79.772.709.709,0,0,1,74.1,80.48Z" transform="translate(-49.405 -46.951)" fill="#c1213c"/><path d="M81.973,136.752a8.589,8.589,0,0,1-8.579-8.58.708.708,0,1,1,1.416,0,7.172,7.172,0,0,0,7.163,7.164.708.708,0,0,1,0,1.416Z" transform="translate(-49.405 -95.351)" fill="#c1213c"/><path d="M87.975,56.027a.708.708,0,0,1-.708-.708A22.436,22.436,0,0,0,44.764,45.3,22.2,22.2,0,0,0,42.408,55.32a.708.708,0,1,1-1.416,0A23.6,23.6,0,0,1,43.5,44.669,23.954,23.954,0,0,1,47.841,38.6,23.846,23.846,0,0,1,88.684,55.321.708.708,0,0,1,87.975,56.027Z" transform="translate(-25.165 -23.541)" fill="#c1213c"/><path d="M57.994,141.041a17.024,17.024,0,0,1-17-17,.708.708,0,1,1,1.416,0A15.6,15.6,0,0,0,62.61,138.931a.708.708,0,0,1,.419,1.352A17.024,17.024,0,0,1,57.994,141.041Z" transform="translate(-25.163 -92.257)" fill="#c1213c"/><path d="M149.661,136.86a.708.708,0,0,1-.474-1.234,15.615,15.615,0,0,0,5.164-11.59.708.708,0,1,1,1.416,0,17.036,17.036,0,0,1-5.632,12.643A.708.708,0,0,1,149.661,136.86Z" transform="translate(-105.931 -92.257)" fill="#c1213c"/><path d="M147.716,101.365a.708.708,0,0,1-.708-.708,7.171,7.171,0,0,0-7.163-7.163.708.708,0,0,1,0-1.416,8.589,8.589,0,0,1,8.579,8.579A.708.708,0,0,1,147.716,101.365Z" transform="translate(-98.588 -68.879)" fill="#c1213c"/><path d="M19.754,103.717a.7.7,0,0,1-.269-.05.645.645,0,0,1-.234-.156.714.714,0,0,1-.205-.5.959.959,0,0,1,.014-.142.767.767,0,0,1,.106-.255,1.116,1.116,0,0,1,.085-.106.75.75,0,0,1,.234-.156.725.725,0,0,1,.772.156,1.116,1.116,0,0,1,.085.106.767.767,0,0,1,.106.255.959.959,0,0,1,.014.142.7.7,0,0,1-.708.7Z" transform="translate(-8.747 -76.531)" fill="#c1213c"/><path d="M9.091,29.384H8.062a.708.708,0,1,1,0-1.416h1.03a.708.708,0,0,1,0,1.416Z" transform="translate(0 -20.918)" fill="#c1213c"/><path d="M29.582,29.384h-1.03a.708.708,0,1,1,0-1.416h1.03a.708.708,0,0,1,0,1.416Z" transform="translate(-15.329 -20.918)" fill="#c1213c"/><path d="M20.353,18.123a.708.708,0,0,1-.708-.708V16.385a.708.708,0,1,1,1.416,0v1.03A.708.708,0,0,1,20.353,18.123Z" transform="translate(-9.195 -11.723)" fill="#c1213c"/><path d="M20.353,38.613a.708.708,0,0,1-.708-.708v-1.03a.708.708,0,1,1,1.416,0v1.03A.708.708,0,0,1,20.353,38.613Z" transform="translate(-9.195 -27.052)" fill="#c1213c"/><path d="M144.018,1.419a.713.713,0,0,1-.708-.708.71.71,0,0,1,.984-.651.69.69,0,0,1,.432.651.716.716,0,0,1-.205.5A.731.731,0,0,1,144.018,1.419Z" transform="translate(-101.709 0)" fill="#c1213c"/><path d="M204.757,211.407h-1.03a.708.708,0,1,1,0-1.416h1.03a.708.708,0,0,1,0,1.416Z" transform="translate(-146.378 -157.09)" fill="#c1213c"/><path d="M225.248,211.407h-1.03a.708.708,0,0,1,0-1.416h1.03a.708.708,0,1,1,0,1.416Z" transform="translate(-161.707 -157.09)" fill="#c1213c"/><path d="M216.018,200.149a.707.707,0,0,1-.708-.708v-1.03a.708.708,0,1,1,1.416,0v1.03A.707.707,0,0,1,216.018,200.149Z" transform="translate(-155.573 -147.897)" fill="#c1213c"/><path d="M216.018,220.641a.707.707,0,0,1-.708-.708V218.9a.708.708,0,0,1,1.416,0v1.029A.708.708,0,0,1,216.018,220.641Z" transform="translate(-155.573 -163.228)" fill="#c1213c"/><path d="M122.606,126.817a.7.7,0,0,1-.5-.205.7.7,0,0,1-.205-.5.459.459,0,0,1,.014-.142.944.944,0,0,1,.035-.134.672.672,0,0,1,.071-.12.4.4,0,0,1,.085-.106,1.23,1.23,0,0,1,.106-.092c.042-.021.078-.042.12-.064a.943.943,0,0,1,.134-.035.7.7,0,0,1,.637.191.452.452,0,0,1,.092.106.648.648,0,0,1,.064.12.985.985,0,0,1,.042.134.872.872,0,0,1,.014.142.7.7,0,0,1-.212.5A.673.673,0,0,1,122.606,126.817Z" transform="translate(-85.691 -93.813)" fill="#c1213c"/><path d="M227.34,153.66a.709.709,0,0,1-.276-.05.719.719,0,0,1-.227-.156.645.645,0,0,1-.156-.234.7.7,0,0,1-.05-.269.687.687,0,0,1,.205-.5.467.467,0,0,1,.106-.092.41.41,0,0,1,.12-.064.493.493,0,0,1,.134-.042.7.7,0,0,1,.792.962.636.636,0,0,1-.156.234A.677.677,0,0,1,227.34,153.66Z" transform="translate(-164.043 -113.888)" fill="#c1213c"/><path d="M74.861,10.878a.72.72,0,0,1-.5-.212.735.735,0,0,1-.205-.5.959.959,0,0,1,.014-.142.494.494,0,0,1,.042-.134.394.394,0,0,1,.064-.12l.085-.106a.741.741,0,0,1,1.005,0,.558.558,0,0,1,.085.106.672.672,0,0,1,.071.12.943.943,0,0,1,.035.134.481.481,0,0,1,.014.142.7.7,0,0,1-.05.269.858.858,0,0,1-.156.227A.72.72,0,0,1,74.861,10.878Z" transform="translate(-49.973 -7.08)" fill="#c1213c"/><path d="M112.906,117.323a4.222,4.222,0,0,1-3.039-1.213.708.708,0,1,1,1-1,2.916,2.916,0,0,0,2.369.784,4.668,4.668,0,0,0,4.054-4.054,2.777,2.777,0,0,0-3.153-3.153,4.464,4.464,0,0,0-2.723,1.331.708.708,0,0,1-1-1,5.876,5.876,0,0,1,3.6-1.741,4.188,4.188,0,0,1,4.689,4.689,6.082,6.082,0,0,1-5.338,5.338Q113.132,117.323,112.906,117.323Z" transform="translate(-76.535 -80.232)" fill="#c1213c"/><path d="M103.045,248.7a.712.712,0,0,1-.276-.057.7.7,0,0,1-.227-.149.853.853,0,0,1-.156-.234.7.7,0,0,1-.05-.269.711.711,0,0,1,.205-.5.7.7,0,0,1,.227-.149.688.688,0,0,1,.411-.043.428.428,0,0,1,.134.043.393.393,0,0,1,.12.064.431.431,0,0,1,.106.085.719.719,0,0,1,.212.5.707.707,0,0,1-.212.5A.7.7,0,0,1,103.045,248.7Z" transform="translate(-71.058 -184.99)" fill="#c1213c"/><path d="M172.2,239.3a.71.71,0,0,1-.277-.05.611.611,0,0,1-.227-.156.724.724,0,0,1-.156-.226.7.7,0,0,1-.049-.27.7.7,0,0,1,1.2-.5.627.627,0,0,1,.156.227.787.787,0,0,1,0,.546.618.618,0,0,1-.156.226A.693.693,0,0,1,172.2,239.3Z" transform="translate(-122.796 -177.966)" fill="#c1213c"/><path d="M122.606,95.546a.707.707,0,0,1-.5-.212.684.684,0,0,1-.205-.5.7.7,0,0,1,.205-.5.732.732,0,0,1,1,0,.707.707,0,0,1,.212.5.726.726,0,0,1-.708.708Z" transform="translate(-85.691 -70.42)" fill="#c1213c"/></g><g transform="translate(704.254 966.788)"><path d="M21.87,25.324a3.085,3.085,0,1,1,3.085-3.085A3.089,3.089,0,0,1,21.87,25.324Zm0-4.838a1.752,1.752,0,1,0,1.752,1.752A1.754,1.754,0,0,0,21.87,20.486Z" transform="translate(-14.328 -14.296)" fill="#c1213c"/><path d="M215.862,206.8a3.085,3.085,0,1,1,3.085-3.085A3.089,3.089,0,0,1,215.862,206.8Zm0-4.837a1.752,1.752,0,1,0,1.752,1.752A1.755,1.755,0,0,0,215.862,201.967Z" transform="translate(-162.295 -152.721)" fill="#c1213c"/><path d="M56.774,76.07a.667.667,0,0,1-.653-.537,16.764,16.764,0,1,1,33.139-4.759.667.667,0,1,1-1.328.119,15.434,15.434,0,0,0-6.287-11.106,15.253,15.253,0,0,0-6.724-2.779,15.524,15.524,0,0,0-7.625.747,15.434,15.434,0,0,0-9.868,17.52.667.667,0,0,1-.524.784A.773.773,0,0,1,56.774,76.07Z" transform="translate(-42.562 -42.017)" fill="#c1213c"/><path d="M84.255,157.819a16.677,16.677,0,0,1-9.847-3.206,16.849,16.849,0,0,1-3.1-2.92.667.667,0,0,1,1.031-.846,15.443,15.443,0,0,0,26.508-4.7.666.666,0,1,1,1.259.439,16.773,16.773,0,0,1-15.853,11.235Z" transform="translate(-54.277 -110.819)" fill="#c1213c"/><path d="M82.41,92.921a.667.667,0,0,1-.667-.667A10.556,10.556,0,0,1,92.288,81.709a.667.667,0,0,1,0,1.333,9.222,9.222,0,0,0-9.211,9.211A.667.667,0,0,1,82.41,92.921Z" transform="translate(-62.35 -62.011)" fill="#c1213c"/><path d="M247.947,97.406a.7.7,0,0,1-.473-.193.637.637,0,0,1-.08-.107.371.371,0,0,1-.06-.113.421.421,0,0,1-.041-.127.906.906,0,0,1-.013-.127.606.606,0,0,1,.053-.26.659.659,0,0,1,.14-.213.7.7,0,0,1,.947,0,.659.659,0,0,1,.14.213.725.725,0,0,1,.053.26.743.743,0,0,1-.014.127.722.722,0,0,1-.1.24c-.027.04-.053.073-.08.107A.7.7,0,0,1,247.947,97.406Z" transform="translate(-188.613 -72.973)" fill="#c1213c"/><path d="M.667,136.665a.66.66,0,0,1-.473-.193.649.649,0,0,1-.14-.213A.7.7,0,0,1,0,136a.664.664,0,0,1,.053-.253.656.656,0,0,1,.14-.213.683.683,0,0,1,.947,0,.656.656,0,0,1,.14.213.646.646,0,0,1,0,.514.651.651,0,0,1-.613.406Z" transform="translate(0 -102.919)" fill="#c1213c"/><path d="M127.707,248.192a.669.669,0,0,1-.253-.046.69.69,0,0,1-.213-.147.586.586,0,0,1-.147-.213.7.7,0,0,1-.053-.261.651.651,0,0,1,.2-.467.583.583,0,0,1,.213-.147.639.639,0,0,1,.387-.04.767.767,0,0,1,.12.04,1.262,1.262,0,0,1,.12.06,1.068,1.068,0,0,1,.1.087.674.674,0,0,1,.193.467.66.66,0,0,1-.667.667Z" transform="translate(-96.9 -187.979)" fill="#c1213c"/><path d="M159.123,11.588a.671.671,0,0,1-.667-.667.689.689,0,0,1,.193-.473.678.678,0,0,1,.607-.18.806.806,0,0,1,.12.033l.121.06a1.261,1.261,0,0,1,.1.087.668.668,0,0,1,0,.94,1.156,1.156,0,0,1-.1.087l-.121.06-.12.04A.886.886,0,0,1,159.123,11.588Z" transform="translate(-120.863 -7.508)" fill="#c1213c"/><path d="M37.889,110.539c-6.818,0-12.144-1.151-12.576-3.9-.285-1.813,1.56-3.673,5.484-5.531a.667.667,0,0,1,.571,1.205c-3.138,1.486-4.909,3.026-4.737,4.119.4,2.515,10.141,3.856,23.492,1.755a69.645,69.645,0,0,0,16.049-4.3c4.482-1.931,5.919-3.635,5.769-4.584-.156-1-2.026-1.875-5-2.354a.667.667,0,1,1,.211-1.317c3.787.609,5.842,1.774,6.107,3.463.388,2.469-3.352,4.634-6.559,6.016a71.035,71.035,0,0,1-16.371,4.39A82.276,82.276,0,0,1,37.889,110.539Z" transform="translate(-19.286 -72.627)" fill="#c1213c"/><path d="M8.485,208.526H7.709a.667.667,0,1,1,0-1.333h.776a.667.667,0,1,1,0,1.333Z" transform="translate(-5.371 -157.724)" fill="#c1213c"/><path d="M24.882,208.526H24.1a.667.667,0,1,1,0-1.333h.777a.667.667,0,1,1,0,1.333Z" transform="translate(-17.878 -157.724)" fill="#c1213c"/><path d="M17.544,199.467a.666.666,0,0,1-.667-.667v-.776a.667.667,0,1,1,1.333,0v.776A.666.666,0,0,1,17.544,199.467Z" transform="translate(-12.873 -150.222)" fill="#c1213c"/><path d="M17.544,215.866a.666.666,0,0,1-.667-.667v-.776a.667.667,0,1,1,1.333,0v.776A.666.666,0,0,1,17.544,215.866Z" transform="translate(-12.873 -162.73)" fill="#c1213c"/><path d="M210.788,11.579h-.776a.667.667,0,0,1,0-1.333h.776a.667.667,0,1,1,0,1.333Z" transform="translate(-159.678 -7.502)" fill="#c1213c"/><path d="M227.187,11.579h-.776a.667.667,0,0,1,0-1.333h.776a.667.667,0,1,1,0,1.333Z" transform="translate(-172.187 -7.502)" fill="#c1213c"/><path d="M219.847,2.52a.666.666,0,0,1-.667-.667V1.077a.667.667,0,1,1,1.333,0v.777A.666.666,0,0,1,219.847,2.52Z" transform="translate(-167.18)" fill="#c1213c"/><path d="M219.847,18.919a.666.666,0,0,1-.667-.667v-.776a.667.667,0,1,1,1.333,0v.776A.666.666,0,0,1,219.847,18.919Z" transform="translate(-167.18 -12.508)" fill="#c1213c"/></g></g></svg>