<svg xmlns="http://www.w3.org/2000/svg" width="1546.718" height="1548.231" viewBox="0 0 1546.718 1548.231"><g transform="translate(-741.233 -186.063)"><path d="M1101.1,777.711C999.407,765.683,874.754,645.4,856.166,551.368s66.7-201.193,155.269-250.4,217.6-84.2,294.136-38.27S1449.9,369.857,1459.746,454.052s8.748,231.81-111.531,288.669S1101.1,777.711,1101.1,777.711Z" fill="#f4e1d7"/><path d="M1623.763,435.464c37.177-88.569,94.036-236.184,158.549-247.118S1884,204.747,1951.8,292.223s183.7,164.016,212.128,180.418,98.41,36.084,114.812,49.2,24.056,103.877-95.129,98.41S2002.094,501.07,1978.038,466.08s-113.718-250.4-182.6-237.277-92.943,97.316-125.746,189.166,84.186,130.37,70.6,171.131-274.978,17.469-221.276-27.174S1623.763,435.464,1623.763,435.464Z" fill="#f4e1d7"/><path d="M112.013,249.4C149.19,160.832,206.049,13.217,270.562,2.283s101.69,16.4,169.484,103.877,183.7,164.016,212.128,180.418,98.41,36.084,114.812,49.2,24.056,103.877-95.129,98.41S490.344,315.008,466.289,280.018,352.571,29.619,283.684,42.74s-92.943,97.316-125.746,189.166,84.186,130.37,70.6,171.131S-46.442,420.506,7.26,375.863,112.013,249.4,112.013,249.4Z" transform="matrix(-0.208, 0.978, -0.978, -0.208, 1962.26, 566.685)" fill="#f4e1d7"/><path d="M908.011,890.5c-24.473,12.452-46.707,48.621-51.3,89.968s-2.4,186.566,30.29,243.425,58.28,122.247,113.718,163.47,150.321,100.925,198.651,156.362-51.884,260.13-198.651,166.313-236.924-294.87-254.8-429.285,16.844-314.188,79.389-375.312,134.876-53.752,199.577-29.364,121.438,94.065,74.157,78.139-46.783-19.908-87.595-42.3S932.484,878.044,908.011,890.5Z" fill="#f4e1d7"/><path d="M80,0H811a0,0,0,0,1,0,0V563a80,80,0,0,1-80,80H0a0,0,0,0,1,0,0V80A80,80,0,0,1,80,0Z" transform="translate(1000 437)" fill="#c1213c"/><path d="M1530.2,429.6l24.149,72.446,173.484,12.653-18.116,197.337,109.991,47.231v86.7l-265.359-38.82,82.9-201.219-197.984-50.467L1454.8,429.6Z" fill="none" stroke="#f8ebe7" stroke-width="1" opacity="0.5"/><path d="M1728.775,845.962l-24.149-72.446-173.484-12.653,18.116-197.337-109.991-47.231V429.6l265.359,38.82-82.9,201.219L1819.707,720.1l-15.528,125.86Z" transform="matrix(0.946, -0.326, 0.326, 0.946, -570.13, 1007.478)" fill="none" stroke="#f8ebe7" stroke-width="1" opacity="0.5"/><g transform="matrix(0.819, -0.574, 0.574, 0.819, 814.643, 849.883)"><path d="M204.649,28.689a3.012,3.012,0,1,1,3.012-3.012A3.015,3.015,0,0,1,204.649,28.689Zm0-4.723a1.71,1.71,0,1,0,1.711,1.71A1.712,1.712,0,0,0,204.649,23.966Z" transform="translate(-159.683 -22.078)" fill="#c1213c"/><path d="M30.328,198.93a3.012,3.012,0,1,1,3.012-3.012A3.015,3.015,0,0,1,30.328,198.93Zm0-4.722a1.71,1.71,0,1,0,1.71,1.71A1.712,1.712,0,0,0,30.328,194.208Z" transform="translate(-25.734 -152.892)" fill="#c1213c"/><path d="M101.7,157.7a8.713,8.713,0,0,1-7.327-3.985.651.651,0,0,1,1.092-.708,7.429,7.429,0,0,0,12.468,0,.651.651,0,1,1,1.092.709A8.707,8.707,0,0,1,101.7,157.7Z" transform="translate(-77.183 -122.009)" fill="#c1213c"/><path d="M247.931,100.887a.661.661,0,0,1-.462-.2.643.643,0,0,1-.137-.208.545.545,0,0,1-.052-.247.883.883,0,0,1,.013-.13.725.725,0,0,1,.1-.234,1.027,1.027,0,0,1,.078-.1.681.681,0,0,1,.924,0l.078.1a.479.479,0,0,1,.059.111.454.454,0,0,1,.039.124.978.978,0,0,1,.012.13.676.676,0,0,1-.189.456A.662.662,0,0,1,247.931,100.887Z" transform="translate(-194.755 -81.19)" fill="#c1213c"/><path d="M.651,140.146A.644.644,0,0,1,0,139.495a.654.654,0,0,1,.189-.455.667.667,0,0,1,.924,0,.656.656,0,0,1,.189.455.644.644,0,0,1-.651.651Z" transform="translate(-4.744 -111.358)" fill="#c1213c"/><path d="M99.591,229.211a.653.653,0,0,1-.247-.045.791.791,0,0,1-.215-.144.67.67,0,0,1-.189-.462.649.649,0,0,1,.4-.6.665.665,0,0,1,.709.143.8.8,0,0,1,.143.208.65.65,0,0,1-.605.9Z" transform="translate(-80.77 -179.793)" fill="#c1213c"/><path d="M94.477,20.68a.661.661,0,0,1-.651-.651.681.681,0,0,1,.052-.254.643.643,0,0,1,.137-.208.774.774,0,0,1,.215-.143.651.651,0,0,1,.495,0,.622.622,0,0,1,.215.143.661.661,0,0,1,.143.208.674.674,0,0,1,.046.254.641.641,0,0,1-.046.247.675.675,0,0,1-.605.4Z" transform="translate(-76.84 -19.55)" fill="#c1213c"/><path d="M93.546,91.031a44.422,44.422,0,0,1-9.383-.949.65.65,0,0,1-.51-.6l-.009-.147c-.008-.119-.016-.239-.016-.36a9.918,9.918,0,1,1,19.836,0c0,.119-.008.236-.015.353l-.01.153a.65.65,0,0,1-.51.6A44.437,44.437,0,0,1,93.546,91.031ZM84.93,88.914a45.927,45.927,0,0,0,17.232,0,8.616,8.616,0,0,0-17.232,0Zm17.859.532h0Z" transform="translate(-69.004 -65.407)" fill="#c1213c"/><path d="M39.358,56.754H38.6a.651.651,0,1,1,0-1.3h.758a.651.651,0,1,1,0,1.3Z" transform="translate(-33.904 -47.272)" fill="#c1213c"/><path d="M55.757,56.754H55a.651.651,0,0,1,0-1.3h.758a.651.651,0,1,1,0,1.3Z" transform="translate(-46.505 -47.272)" fill="#c1213c"/><path d="M48.438,47.677a.651.651,0,0,1-.651-.651v-.758a.651.651,0,0,1,1.3,0v.758A.651.651,0,0,1,48.438,47.677Z" transform="translate(-41.463 -39.715)" fill="#c1213c"/><path d="M48.438,64.076a.651.651,0,0,1-.651-.651v-.758a.651.651,0,0,1,1.3,0v.758A.65.65,0,0,1,48.438,64.076Z" transform="translate(-41.463 -52.316)" fill="#c1213c"/><path d="M202.34,208.494h-.758a.651.651,0,1,1,0-1.3h.758a.651.651,0,0,1,0,1.3Z" transform="translate(-159.141 -163.87)" fill="#c1213c"/><path d="M218.737,208.494h-.758a.651.651,0,1,1,0-1.3h.758a.651.651,0,0,1,0,1.3Z" transform="translate(-171.74 -163.87)" fill="#c1213c"/><path d="M211.418,199.417a.65.65,0,0,1-.651-.651v-.758a.651.651,0,0,1,1.3,0v.758A.65.65,0,0,1,211.418,199.417Z" transform="translate(-166.698 -156.312)" fill="#c1213c"/><path d="M211.418,215.816a.65.65,0,0,1-.651-.651v-.758a.651.651,0,0,1,1.3,0v.758A.65.65,0,0,1,211.418,215.816Z" transform="translate(-166.698 -168.914)" fill="#c1213c"/><path d="M158.6,195.5a.653.653,0,0,1-.247-.045.791.791,0,0,1-.215-.144.642.642,0,0,1-.189-.462.654.654,0,0,1,.189-.456.668.668,0,0,1,.924,0,.658.658,0,0,1,.189.456.644.644,0,0,1-.651.651Z" transform="translate(-126.114 -153.896)" fill="#c1213c"/><path d="M153.487,51.59a.635.635,0,0,1-.456-.2.569.569,0,0,1-.143-.208.648.648,0,0,1-.052-.247.734.734,0,0,1,.014-.13.432.432,0,0,1,.039-.124.569.569,0,0,1,.143-.208.668.668,0,0,1,.208-.143.651.651,0,0,1,.495,0,.622.622,0,0,1,.215.143.657.657,0,0,1,.189.462.546.546,0,0,1-.052.247.643.643,0,0,1-.137.208A.666.666,0,0,1,153.487,51.59Z" transform="translate(-122.184 -43.301)" fill="#c1213c"/><path d="M55.809,116.653c-10.321,0-21.291-2.517-21.291-7.18,0-2.421,3.079-4.494,8.672-5.837a.651.651,0,0,1,.3,1.266c-4.733,1.137-7.674,2.888-7.674,4.571,0,2.78,8.21,5.879,19.989,5.879s19.989-3.1,19.989-5.879c0-1.683-2.941-3.434-7.674-4.571a.651.651,0,0,1,.3-1.266c5.592,1.343,8.672,3.416,8.672,5.837C77.1,114.137,66.13,116.653,55.809,116.653Z" transform="translate(-31.268 -84.282)" fill="#c1213c"/><line x1="2.86" y2="2.81" transform="translate(-6.174 -6.067)" fill="#fff"/><path d="M87.973,164.913a.651.651,0,0,1-.456-1.115l2.86-2.81a.651.651,0,1,1,.913.928l-2.86,2.81A.652.652,0,0,1,87.973,164.913Z" transform="translate(-71.843 -128.222)" fill="#c1213c"/><line x2="2.86" y2="2.81" transform="translate(-6.174 -6.067)" fill="#fff"/><path d="M151.123,164.914a.65.65,0,0,1-.456-.187l-2.86-2.81a.651.651,0,1,1,.912-.928l2.86,2.81a.651.651,0,0,1-.456,1.115Z" transform="translate(-118.17 -128.223)" fill="#c1213c"/></g><g transform="translate(1914.468 888.772) rotate(124)"><path d="M14.394,66.677a2.533,2.533,0,1,1,2.533-2.533A2.536,2.536,0,0,1,14.394,66.677Zm0-3.732a1.2,1.2,0,1,0,1.2,1.2A1.2,1.2,0,0,0,14.394,62.945Z" transform="translate(-9.047 -36.353)" fill="#c1213c"/><path d="M155.624,198.259a2.533,2.533,0,1,1,2.533-2.533A2.535,2.535,0,0,1,155.624,198.259Zm0-3.733a1.2,1.2,0,1,0,1.2,1.2A1.2,1.2,0,0,0,155.624,194.526Z" transform="translate(-116.771 -136.717)" fill="#c1213c"/><path d="M190.473,117.718a5.927,5.927,0,0,1-1.131-11.744,5.92,5.92,0,0,1,5.323,1.628,5.925,5.925,0,0,1-4.191,10.116Zm0-10.519a4.584,4.584,0,0,0-3.247,1.345h0a4.591,4.591,0,1,0,4.649-1.128A4.636,4.636,0,0,0,190.473,107.2Zm-3.719.874h0Z" transform="translate(-140.763 -70.109)" fill="#c1213c"/><path d="M70.851,110.319H39.405a.667.667,0,1,1,0-1.333H70.851a.667.667,0,0,1,0,1.333Z" transform="translate(-29.548 -72.488)" fill="#c1213c"/><path d="M93.4,151.545H68.969a.667.667,0,1,1,0-1.333H93.4a.667.667,0,1,1,0,1.333Z" transform="translate(-52.098 -103.932)" fill="#c1213c"/><path d="M47.362,190.91h-.777a.667.667,0,1,1,0-1.333h.777a.667.667,0,1,1,0,1.333Z" transform="translate(-35.024 -133.958)" fill="#c1213c"/><path d="M100.12,108.059H76.469a.667.667,0,0,1,0-1.333H100.12a8.966,8.966,0,0,0,8.956-8.956,8.853,8.853,0,0,0-.993-4.1,9,9,0,0,0-2.956-3.323,8.91,8.91,0,0,0-5.007-1.529H66.755a.667.667,0,0,1,0-1.333H100.12a10.238,10.238,0,0,1,5.753,1.757,10.29,10.29,0,0,1-5.753,18.821Z" transform="translate(-50.409 -56.085)" fill="#c1213c"/><path d="M216.9,234.7a.671.671,0,0,1-.254-.047.713.713,0,0,1-.359-.36.659.659,0,0,1-.053-.26.646.646,0,0,1,.2-.467.69.69,0,0,1,.94,0,.646.646,0,0,1,.193.467.62.62,0,0,1-.193.473.589.589,0,0,1-.213.147A.668.668,0,0,1,216.9,234.7Z" transform="translate(-164.929 -167.368)" fill="#c1213c"/><path d="M79.515,26.117a.817.817,0,0,1-.127-.013.4.4,0,0,1-.127-.04.61.61,0,0,1-.113-.06.929.929,0,0,1-.187-.187.61.61,0,0,1-.06-.113.7.7,0,0,1-.04-.127.817.817,0,0,1-.013-.127.725.725,0,0,1,.053-.26.583.583,0,0,1,.147-.213.3.3,0,0,1,.1-.08.633.633,0,0,1,.113-.067.762.762,0,0,1,.513,0,.711.711,0,0,1,.36.36.715.715,0,0,1,.047.26.41.41,0,0,1-.013.127.7.7,0,0,1-.033.127.633.633,0,0,1-.067.113.3.3,0,0,1-.08.1.583.583,0,0,1-.213.147A.725.725,0,0,1,79.515,26.117Z" transform="translate(-60.142 -8.262)" fill="#c1213c"/><path d="M73.558,233a.669.669,0,0,1-.253-.046.585.585,0,0,1-.213-.147.66.66,0,0,1-.2-.466.726.726,0,0,1,.053-.261.581.581,0,0,1,.147-.213.668.668,0,0,1,.213-.147.684.684,0,0,1,.513,0,.718.718,0,0,1,.36.36.716.716,0,0,1,.047.261.653.653,0,0,1-.193.466.585.585,0,0,1-.213.147A.667.667,0,0,1,73.558,233Z" transform="translate(-55.598 -166.063)" fill="#c1213c"/><path d="M137.143,56.1a.9.9,0,0,1-.133-.013.428.428,0,0,1-.121-.04.413.413,0,0,1-.12-.06,1.051,1.051,0,0,1-.1-.08.5.5,0,0,1-.079-.1.535.535,0,0,1-.061-.12.446.446,0,0,1-.04-.12.455.455,0,0,1-.014-.133.7.7,0,0,1,.193-.473.69.69,0,0,1,.94,0,.678.678,0,0,1,.2.473.9.9,0,0,1-.013.133.424.424,0,0,1-.04.12.535.535,0,0,1-.061.12,1.161,1.161,0,0,1-.087.1.415.415,0,0,1-.1.08.378.378,0,0,1-.113.06.408.408,0,0,1-.127.04A.784.784,0,0,1,137.143,56.1Z" transform="translate(-104.097 -31.137)" fill="#c1213c"/><path d="M38.426,129.371H.667a.667.667,0,1,1,0-1.333H38.426a.667.667,0,1,1,0,1.333Z" transform="translate(0 -87.019)" fill="#c1213c"/><path d="M199.565,25.12h-.776a.667.667,0,1,1,0-1.333h.776a.667.667,0,0,1,0,1.333Z" transform="translate(-151.118 -7.502)" fill="#c1213c"/><path d="M215.962,25.12h-.777a.667.667,0,1,1,0-1.333h.777a.667.667,0,1,1,0,1.333Z" transform="translate(-163.624 -7.502)" fill="#c1213c"/><path d="M208.624,16.061a.666.666,0,0,1-.667-.667v-.776a.667.667,0,0,1,1.333,0v.777A.666.666,0,0,1,208.624,16.061Z" transform="translate(-158.62)" fill="#c1213c"/><path d="M208.624,32.46a.666.666,0,0,1-.667-.667v-.776a.667.667,0,0,1,1.333,0v.776A.666.666,0,0,1,208.624,32.46Z" transform="translate(-158.62 -12.508)" fill="#c1213c"/><path d="M30.962,190.91h-.777a.667.667,0,1,1,0-1.333h.777a.667.667,0,1,1,0,1.333Z" transform="translate(-22.516 -133.958)" fill="#c1213c"/><path d="M40.024,181.852a.666.666,0,0,1-.667-.667v-.777a.667.667,0,1,1,1.333,0v.777A.666.666,0,0,1,40.024,181.852Z" transform="translate(-30.02 -126.457)" fill="#c1213c"/><path d="M40.024,198.25a.666.666,0,0,1-.667-.667v-.776a.667.667,0,1,1,1.333,0v.776A.666.666,0,0,1,40.024,198.25Z" transform="translate(-30.02 -138.965)" fill="#c1213c"/></g><g transform="translate(876.099 302)"><path d="M78.863,71.087a.664.664,0,0,1,.471.2L94.725,86.674a5.408,5.408,0,0,1,0,7.648l-.406.406a5.408,5.408,0,0,1-7.648,0L71.28,79.337a.666.666,0,0,1,0-.943l7.112-7.112A.669.669,0,0,1,78.863,71.087ZM90.494,94.98a4.046,4.046,0,0,0,2.881-1.194l.406-.406a4.074,4.074,0,0,0,0-5.763L78.863,72.7l-6.17,6.17,14.92,14.919A4.052,4.052,0,0,0,90.494,94.98Z" transform="translate(-53.174 -53.177)" fill="#c1213c"/><path d="M19.41,138.3a.665.665,0,0,1,.471.2l7.112,7.112a.666.666,0,0,1,0,.943L8.249,165.29a.666.666,0,0,1-.943,0L.195,158.178a.666.666,0,0,1,0-.943l18.744-18.744A.665.665,0,0,1,19.41,138.3Zm6.169,7.779-6.169-6.169-17.8,17.8,6.169,6.169Z" transform="translate(32.811 -138.296)" fill="#c1213c"/><path d="M40.169,177.8a.665.665,0,0,1,.471.2l7.112,7.113a.667.667,0,0,1-.943.943L39.7,178.934a.667.667,0,0,1,.471-1.138Z" transform="translate(2.68 -168.424)" fill="#c1213c"/><path d="M60.469,157.5a.665.665,0,0,1,.471.2l7.112,7.112a.667.667,0,1,1-.943.943L60,158.638a.667.667,0,0,1,.471-1.138Z" transform="translate(-22.435 -143.312)" fill="#c1213c"/><path d="M19.867,198.1a.665.665,0,0,1,.471.2l7.112,7.112a.667.667,0,0,1-.943.943L19.4,199.237a.667.667,0,0,1,.471-1.138Z" transform="translate(27.799 -193.543)" fill="#c1213c"/><path d="M157.707,0a.664.664,0,0,1,.471.2l7.112,7.112a.666.666,0,0,1,0,.943L146.546,26.993a.666.666,0,0,1-.943,0l-7.112-7.112a.666.666,0,0,1,0-.943L157.236.195A.666.666,0,0,1,157.707,0Zm6.169,7.779-6.169-6.169-17.8,17.8,6.169,6.169Z" transform="translate(-138.296 32.811)" fill="#c1213c"/><path d="M178.466,39.5a.665.665,0,0,1,.471.2l7.112,7.112a.667.667,0,0,1-.943.943l-7.112-7.112a.667.667,0,0,1,.471-1.138Z" transform="translate(-168.427 2.68)" fill="#c1213c"/><path d="M198.766,19.2a.665.665,0,0,1,.471.2l7.112,7.112a.667.667,0,0,1-.943.943l-7.112-7.112a.667.667,0,0,1,.471-1.138Z" transform="translate(-193.543 27.796)" fill="#c1213c"/><path d="M158.167,59.8a.665.665,0,0,1,.471.2l7.112,7.113a.667.667,0,0,1-.943.943L157.7,60.94a.667.667,0,0,1,.471-1.139Z" transform="translate(-143.312 -22.436)" fill="#c1213c"/><path d="M167.774,14.988a.667.667,0,0,1,.471,1.138L147.971,36.4a.667.667,0,1,1-.943-.943L167.3,15.183A.665.665,0,0,1,167.774,14.988Z" transform="translate(-143.277 19.848)" fill="#c1213c"/><path d="M35.864,147.108a.667.667,0,0,1,.471,1.138L16.126,168.456a.667.667,0,1,1-.943-.943L35.393,147.3A.665.665,0,0,1,35.864,147.108Z" transform="translate(19.913 -143.552)" fill="#c1213c"/><path d="M158.616,146.777l.054,0a.667.667,0,0,1,.487.275,8.669,8.669,0,0,1-12.1,12.1.666.666,0,0,1-.082-1.013l3.666-3.666a.667.667,0,1,1,.943.943l-3.081,3.081a7.338,7.338,0,0,0,10-10l-3.081,3.081a.667.667,0,1,1-.943-.943l3.666-3.666A.665.665,0,0,1,158.616,146.777Z" transform="translate(-135.615 -135.609)" fill="#c1213c"/><path d="M216.191,98.35a3.668,3.668,0,1,1-3.668,3.668A3.672,3.672,0,0,1,216.191,98.35Zm0,6a2.335,2.335,0,1,0-2.335-2.335A2.337,2.337,0,0,0,216.191,104.353Z" transform="translate(-210.28 -69.019)" fill="#c1213c"/><path d="M19.491,75.87a3.668,3.668,0,1,1-3.668,3.668A3.672,3.672,0,0,1,19.491,75.87Zm0,6a2.335,2.335,0,1,0-2.335-2.335A2.337,2.337,0,0,0,19.491,81.873Z" transform="translate(33.087 -41.206)" fill="#c1213c"/><path d="M170.556,169.889a.665.665,0,0,1,.471.2l4.074,4.074a.667.667,0,0,1-.943.943l-4.074-4.074a.667.667,0,0,1,.471-1.138Z" transform="translate(-155.602 -155.603)" fill="#c1213c"/><path d="M100.838,26.318h.806a.667.667,0,0,1,0,1.333h-.806a.667.667,0,0,1,0-1.333Z" transform="translate(-66.076 26.104)" fill="#c1213c"/><path d="M117.863,26.318h.806a.667.667,0,1,1,0,1.333h-.806a.667.667,0,0,1,0-1.333Z" transform="translate(-87.141 26.104)" fill="#c1213c"/><path d="M111.049,16.11a.667.667,0,0,1,.667.667v.806a.667.667,0,1,1-1.333,0v-.806A.667.667,0,0,1,111.049,16.11Z" transform="translate(-77.904 37.929)" fill="#c1213c"/><path d="M111.049,33.133a.667.667,0,0,1,.667.667v.806a.667.667,0,1,1-1.333,0V33.8A.667.667,0,0,1,111.049,33.133Z" transform="translate(-77.904 16.867)" fill="#c1213c"/><path d="M54.591,30.829a.677.677,0,0,1,.667.667.678.678,0,0,1-.2.473.659.659,0,0,1-.213.14.666.666,0,0,1-.727-.14,1.159,1.159,0,0,1-.087-.1l-.06-.12a.805.805,0,0,1-.033-.12.453.453,0,0,1-.013-.133.66.66,0,0,1,.667-.667Z" transform="translate(-8.051 20.524)" fill="#c1213c"/><path d="M106.458,223.018h.806a.667.667,0,0,1,0,1.333h-.806a.667.667,0,0,1,0-1.333Z" transform="translate(-73.029 -217.262)" fill="#c1213c"/><path d="M123.483,223.018h.806a.667.667,0,0,1,0,1.333h-.806a.667.667,0,1,1,0-1.333Z" transform="translate(-94.094 -217.262)" fill="#c1213c"/><path d="M116.669,212.807a.666.666,0,0,1,.667.667v.806a.667.667,0,1,1-1.333,0v-.806A.666.666,0,0,1,116.669,212.807Z" transform="translate(-84.857 -205.434)" fill="#c1213c"/><path d="M116.669,229.833a.666.666,0,0,1,.667.667v.806a.667.667,0,1,1-1.333,0V230.5A.666.666,0,0,1,116.669,229.833Z" transform="translate(-84.857 -226.499)" fill="#c1213c"/><path d="M214.758,225.262a.669.669,0,0,1,.253.046.655.655,0,0,1,.213.147.548.548,0,0,1,.147.219.639.639,0,0,1,.053.254.663.663,0,0,1-.053.253.575.575,0,0,1-.147.213.674.674,0,0,1-1.087-.213.656.656,0,0,1-.046-.253.67.67,0,0,1,.046-.254.636.636,0,0,1,.147-.219.658.658,0,0,1,.213-.147A.668.668,0,0,1,214.758,225.262Z" transform="translate(-206.217 -220.028)" fill="#c1213c"/><path d="M9.631,157.311a.664.664,0,0,1,.253.053.583.583,0,0,1,.213.147.64.64,0,0,1,.2.467.664.664,0,0,1-.053.253.556.556,0,0,1-.147.22.69.69,0,0,1-.94,0,.637.637,0,0,1-.147-.22.657.657,0,0,1-.047-.253.632.632,0,0,1,.193-.467A.669.669,0,0,1,9.631,157.311Z" transform="translate(47.576 -135.958)" fill="#c1213c"/><path d="M237.238,174.139a.663.663,0,0,1,.253.053.655.655,0,0,1,.213.14.691.691,0,0,1,.2.473.663.663,0,0,1-.053.253.55.55,0,0,1-.147.22.655.655,0,0,1-.213.14.666.666,0,0,1-.727-.14.638.638,0,0,1-.147-.22.657.657,0,0,1-.046-.253.66.66,0,0,1,.667-.667Z" transform="translate(-234.03 -156.786)" fill="#c1213c"/></g><g transform="translate(1605.269 358.21) rotate(-40)" style="isolation:isolate"><path d="M23.9,93.758a2.44,2.44,0,1,1,2.44-2.44A2.443,2.443,0,0,1,23.9,93.758Zm0-3.548A1.107,1.107,0,1,0,25,91.317,1.108,1.108,0,0,0,23.9,90.21Z" transform="translate(-16.367 -60.641)" fill="#c1213c"/><path d="M117.127,98.037a4.231,4.231,0,0,1-2.695-.79.666.666,0,0,1-.227-.659c.32-1.433,1.949-2.847,4.15-3.6a8.369,8.369,0,0,1,3.219-.477.668.668,0,0,1,.587.449l.779,2.27a.666.666,0,0,1-.188.715,8.365,8.365,0,0,1-2.831,1.6A8.735,8.735,0,0,1,117.127,98.037Zm-1.449-1.586a5.727,5.727,0,0,0,3.809-.171,7.481,7.481,0,0,0,2.041-1.059l-.478-1.393a7.487,7.487,0,0,0-2.261.418A5.721,5.721,0,0,0,115.678,96.451Z" transform="translate(-87.099 -63.399)" fill="#c1213c"/><path d="M56.91,123.529a.666.666,0,0,1-.53-1.07,24.2,24.2,0,0,1,9.209-7.127.667.667,0,1,1,.565,1.209,22.882,22.882,0,0,0-8.712,6.725A.665.665,0,0,1,56.91,123.529Z" transform="translate(-42.901 -80.773)" fill="#c1213c"/><path d="M214.842,224.238a.66.66,0,0,1-.473-.193.67.67,0,0,1-.193-.473.568.568,0,0,1,.053-.253.688.688,0,0,1,.14-.22.7.7,0,0,1,.947,0,.622.622,0,0,1,.14.22.628.628,0,0,1,0,.507.77.77,0,0,1-.14.22A.658.658,0,0,1,214.842,224.238Z" transform="translate(-163.363 -162.877)" fill="#c1213c"/><path d="M25.237,31.627a.671.671,0,0,1-.473-.193.669.669,0,1,1,.947-.947.671.671,0,0,1,.193.473.66.66,0,0,1-.193.473.526.526,0,0,1-.1.08,1,1,0,0,1-.113.067.888.888,0,0,1-.127.033A.454.454,0,0,1,25.237,31.627Z" transform="translate(-18.742 -15.962)" fill="#c1213c"/><path d="M126.5,203.209h-.776a.667.667,0,0,1,0-1.333h.776a.667.667,0,0,1,0,1.333Z" transform="translate(-95.385 -146.831)" fill="#c1213c"/><path d="M142.893,203.209h-.777a.667.667,0,1,1,0-1.333h.777a.667.667,0,0,1,0,1.333Z" transform="translate(-107.892 -146.831)" fill="#c1213c"/><path d="M135.555,194.15a.666.666,0,0,1-.667-.667v-.776a.667.667,0,0,1,1.333,0v.776A.666.666,0,0,1,135.555,194.15Z" transform="translate(-102.887 -139.33)" fill="#c1213c"/><path d="M135.555,210.549a.666.666,0,0,1-.667-.667v-.776a.667.667,0,1,1,1.333,0v.776A.666.666,0,0,1,135.555,210.549Z" transform="translate(-102.887 -151.838)" fill="#c1213c"/><path d="M154.6,20.542h-.776a.667.667,0,1,1,0-1.333h.776a.667.667,0,0,1,0,1.333Z" transform="translate(-116.821 -7.502)" fill="#c1213c"/><path d="M171,20.542h-.777a.667.667,0,1,1,0-1.333H171a.667.667,0,0,1,0,1.333Z" transform="translate(-129.327 -7.502)" fill="#c1213c"/><path d="M163.658,11.484a.666.666,0,0,1-.667-.667v-.777a.667.667,0,1,1,1.333,0v.777A.667.667,0,0,1,163.658,11.484Z" transform="translate(-124.323)" fill="#c1213c"/><path d="M163.658,27.883a.666.666,0,0,1-.667-.667V26.44a.667.667,0,1,1,1.333,0v.777A.667.667,0,0,1,163.658,27.883Z" transform="translate(-124.323 -12.509)" fill="#c1213c"/><path d="M204.369,164.32a2.44,2.44,0,1,1,2.44-2.44A2.442,2.442,0,0,1,204.369,164.32Zm0-3.548a1.107,1.107,0,1,0,1.107,1.107A1.108,1.108,0,0,0,204.369,160.772Z" transform="translate(-154.023 -114.463)" fill="#c1213c"/><path d="M143,68.524q-.715,0-1.41-.045a.668.668,0,0,1-.587-.449l-2.7-7.877a.666.666,0,0,1,.188-.715,27.428,27.428,0,0,1,9.269-5.225c7-2.4,14.017-2.109,17.462.731a.667.667,0,0,1,.226.659c-.972,4.357-6.329,8.9-13.328,11.3A28.418,28.418,0,0,1,143,68.524Zm-.882-1.352a26.346,26.346,0,0,0,9.564-1.526c6.249-2.146,11.24-6.179,12.355-9.927-3.183-2.273-9.6-2.391-15.847-.245a26.417,26.417,0,0,0-8.484,4.671Z" transform="translate(-105.461 -32.966)" fill="#c1213c"/><path d="M145.334,118.92a.666.666,0,0,1-.654-.793l1.185-6.114a.669.669,0,0,1,.7-.539,24.781,24.781,0,0,0,7.437-.747.666.666,0,0,1,.7,1.036l-3.666,5.107a.661.661,0,0,1-.325.241l-5.159,1.771A.645.645,0,0,1,145.334,118.92Zm1.73-6.085-.856,4.413,3.868-1.327,2.533-3.529A25.635,25.635,0,0,1,147.064,112.834Zm3.429,3.647h0Z" transform="translate(-110.346 -77.292)" fill="#c1213c"/><path d="M123.848,63.2a.664.664,0,0,1-.439-.165l-4.691-4.1a.666.666,0,0,1,.222-1.133l5.159-1.771a.666.666,0,0,1,.4-.009l6.031,1.777a.667.667,0,0,1,.083,1.249,24.887,24.887,0,0,0-6.327,3.979A.671.671,0,0,1,123.848,63.2Zm-3.383-4.507,3.387,2.957a25.687,25.687,0,0,1,4.647-3.057l-4.167-1.228Z" transform="translate(-90.38 -35.564)" fill="#c1213c"/><path d="M185.925,73.826a3.877,3.877,0,0,1-1.263-7.544h0a3.877,3.877,0,1,1,1.262,7.544Zm-.829-6.283a2.542,2.542,0,1,0,1.941.12,2.529,2.529,0,0,0-1.941-.12Z" transform="translate(-138.855 -43.245)" fill="#c1213c"/><path d="M9.807,180.444a9.808,9.808,0,1,1,6.939-2.869A9.783,9.783,0,0,1,9.807,180.444Zm0-18.287a8.572,8.572,0,0,0-1.618.154,8.471,8.471,0,1,0,4.2.246A8.535,8.535,0,0,0,9.806,162.157Z" transform="translate(0 -115.518)" fill="#c1213c"/><path d="M46.392,211.109a2.44,2.44,0,1,1,2.44-2.44.667.667,0,1,1-1.333,0,1.107,1.107,0,1,0-1.107,1.107.667.667,0,1,1,0,1.333Z" transform="translate(-33.524 -150.151)" fill="#c1213c"/><path d="M20.528,183.546a3.807,3.807,0,0,1-3.8-3.8.667.667,0,1,1,1.333,0,2.47,2.47,0,1,0,2.47-2.47.667.667,0,1,1,0-1.333,3.8,3.8,0,0,1,0,7.607Z" transform="translate(-12.758 -127.048)" fill="#c1213c"/><path d="M109.515,163.627a.674.674,0,0,1-.62-.92.974.974,0,0,1,.147-.22.622.622,0,0,1,.22-.14.671.671,0,0,1,.727.14.77.77,0,0,1,.14.22.664.664,0,0,1,.053.253.688.688,0,0,1-.193.473A.663.663,0,0,1,109.515,163.627Z" transform="translate(-83.025 -116.641)" fill="#c1213c"/><path d="M82.817,60.092a.817.817,0,0,1-.127-.013c-.047-.013-.087-.027-.127-.04s-.08-.04-.113-.06a.426.426,0,0,1-.1-.087.583.583,0,0,1-.147-.213.65.65,0,0,1,.147-.727.426.426,0,0,1,.1-.087c.033-.02.073-.04.113-.06a.763.763,0,0,1,.513,0,.677.677,0,0,1,.213.147.687.687,0,0,1,.147.727.808.808,0,0,1-.147.213.583.583,0,0,1-.213.147A.708.708,0,0,1,82.817,60.092Z" transform="translate(-62.661 -37.668)" fill="#c1213c"/></g><text transform="translate(1798 267)" fill="#c1213c" font-size="74" font-family="Papyrus-Regular, Papyrus" letter-spacing="0.005em"><tspan x="0" y="0">.....</tspan><tspan x="0" y="18">.....</tspan><tspan x="0" y="36">.....</tspan><tspan x="0" y="54">.....</tspan><tspan x="0" y="72">.....</tspan></text></g></svg>