<svg xmlns="http://www.w3.org/2000/svg" width="817.987" height="649.842" viewBox="0 0 817.987 649.842"><g transform="translate(-997.186 -433.601)"><path d="M80,0H811a0,0,0,0,1,0,0V563a80,80,0,0,1-80,80H0a0,0,0,0,1,0,0V80A80,80,0,0,1,80,0Z" transform="translate(1000 437)" fill="#c1213c"/><path d="M1530.37,434.1l23.978,67.94,173.484,12.653-18.116,197.337,104.958,46.075v88.123l-260.326-39.087,82.9-201.219-197.984-50.467,20.2-121.354Z" fill="none" stroke="#f8ebe7" stroke-width="1" opacity="0.5"/><path d="M997.686,935.4v92.178l80.987,8.835,17.375,46.531H1179.1l15.608-189.068Z" fill="none" stroke="#f8ebe7" stroke-width="1" opacity="0.5"/></g></svg>